# xmcd CD database file
#
# Track frame offsets:
#	150
#	16980
#	32235
#	49365
#	61410
#	75727
#	89077
#	107392
#	120802
#	131272
#
# Disc length: 2017 seconds
#
# Revision: 0
# Processed by: cddbd v1.5.1PL0 Copyright (c) Steve Scherf et al.
# Submitted via: CDex 1.51
#
DISCID=7807df0a
DTITLE=Emmylou Harris - Evangeline
DYEAR=1981
DGENRE=Country
TTITLE0=I Don't Have To Crawl
TTITLE1=How High The Moon
TTITLE2=Spanish Johnny
TTITLE3=Bad Moon Rising
TTITLE4=Evangeline
TTITLE5=Hot Burrito#2
TTITLE6=Millworker
TTITLE7=Oh Atlanta
TTITLE8=Mister Sandman
TTITLE9=Ashes By Now
EXTD=YEAR: 1981
EXTT0=
EXTT1=
EXTT2=
EXTT3=
EXTT4=
EXTT5=
EXTT6=
EXTT7=
EXTT8=
EXTT9=
PLAYORDER=
